<?xml version="1.0" standalone="no"?>
<!DOCTYPE svg PUBLIC "-//W3C//DTD SVG 20010904//EN"
 "http://www.w3.org/TR/2001/REC-SVG-20010904/DTD/svg10.dtd">
<svg version="1.0" xmlns="http://www.w3.org/2000/svg"
 width="1024.000000pt" height="1024.000000pt" viewBox="0 0 1024.000000 1024.000000"
 preserveAspectRatio="xMidYMid meet">
<metadata>
Created by potrace 1.14, written by Peter Selinger 2001-2017
</metadata>
<g transform="translate(0.000000,1024.000000) scale(0.100000,-0.100000)"
fill="#000000" stroke="none">
<path d="M2399 10236 c-2 -2 -31 -6 -64 -10 -33 -3 -71 -8 -85 -11 -14 -3 -38
-8 -55 -10 -26 -4 -104 -23 -170 -41 -11 -3 -24 -6 -30 -7 -5 -2 -14 -5 -20
-8 -5 -4 -23 -10 -40 -14 -43 -12 -60 -18 -139 -55 -25 -11 -50 -20 -55 -20
-6 0 -11 -5 -11 -12 0 -6 -3 -9 -6 -6 -3 4 -33 -9 -66 -28 -33 -19 -64 -34
-69 -34 -5 0 -9 -4 -9 -9 0 -5 -8 -11 -17 -14 -19 -6 -70 -36 -89 -52 -7 -5
-42 -32 -79 -60 -142 -106 -340 -318 -440 -470 -11 -16 -18 -33 -17 -37 1 -5
-1 -8 -6 -8 -4 0 -16 -17 -27 -37 -11 -21 -22 -40 -25 -43 -7 -6 -83 -162 -86
-175 -2 -5 -19 -52 -38 -104 -20 -52 -38 -104 -41 -115 -2 -12 -8 -36 -14 -53
-5 -18 -8 -33 -5 -33 3 0 0 -9 -6 -20 -6 -11 -13 -44 -16 -73 -3 -28 -8 -55
-10 -58 -2 -4 -7 -37 -11 -75 -11 -92 -10 -6761 0 -6844 4 -36 10 -78 13 -95
2 -16 5 -37 6 -45 0 -8 5 -21 11 -28 5 -7 7 -15 4 -18 -3 -3 4 -36 15 -72 10
-37 21 -74 23 -82 2 -8 4 -15 5 -15 1 0 3 -9 4 -20 3 -20 51 -142 79 -200 8
-16 20 -43 28 -60 15 -31 83 -150 109 -190 8 -12 24 -37 35 -54 10 -17 23 -31
27 -31 4 0 8 -7 8 -15 0 -9 7 -18 15 -21 8 -4 15 -11 15 -16 0 -6 11 -21 26
-34 14 -13 22 -24 19 -24 -8 0 203 -209 242 -240 17 -14 44 -34 59 -45 15 -11
33 -26 40 -33 7 -6 15 -12 18 -12 3 0 27 -15 53 -34 27 -18 71 -46 98 -61 28
-15 54 -31 60 -36 5 -5 17 -9 27 -9 10 0 18 -4 18 -8 0 -5 24 -18 53 -30 81
-33 112 -45 117 -47 3 0 15 -6 28 -13 12 -7 22 -10 22 -7 0 2 17 -2 37 -10 36
-13 111 -35 142 -41 7 -1 34 -7 60 -13 25 -6 58 -12 74 -13 15 -1 27 -5 27 -8
0 -3 26 -7 58 -10 31 -3 1594 -5 3472 -5 l3415 0 65 24 c36 13 79 34 97 47 17
13 34 24 37 24 18 0 147 160 129 160 -4 0 -3 4 3 8 6 4 19 30 29 57 16 42 19
87 22 290 1 136 -2 260 -7 285 -16 72 -75 182 -124 232 -42 42 -47 53 -60 125
-23 126 -35 241 -40 400 -2 46 -6 86 -9 89 -3 3 -2 17 3 30 6 15 6 24 0 24 -6
0 -6 9 0 25 6 15 6 27 0 30 -5 3 -6 16 -2 28 4 12 6 38 4 57 -5 55 3 341 13
419 2 20 7 63 10 96 3 33 8 71 11 85 6 24 10 47 19 99 2 12 26 47 54 75 56 60
95 130 116 213 22 85 21 6869 -1 6952 -46 173 -187 310 -359 350 -23 6 -6820
12 -6826 7z m945 -2556 c12 4 29 4 36 0 8 -5 22 -4 31 1 11 6 20 5 24 -1 4 -7
12 -7 25 0 13 7 21 7 25 0 4 -7 13 -7 26 0 13 8 19 7 19 0 0 -6 4 -8 10 -5 16
10 90 11 90 2 0 -4 5 -5 11 -2 14 9 117 10 126 2 3 -4 12 -2 19 4 8 7 14 7 19
-1 4 -6 12 -7 24 -1 10 6 23 6 31 1 8 -5 21 -5 31 1 11 6 20 5 24 -1 4 -7 12
-7 25 0 13 7 21 7 25 0 4 -7 13 -7 26 0 13 8 19 7 19 0 0 -6 4 -8 10 -5 16 10
90 11 90 2 0 -4 5 -5 11 -2 14 9 117 10 126 2 3 -4 12 -2 19 4 8 7 14 7 19 -1
4 -6 12 -7 24 -1 10 6 23 6 31 1 8 -5 21 -5 31 1 11 6 20 5 24 -1 4 -7 12 -7
25 0 13 7 21 7 25 0 4 -7 13 -7 26 0 13 8 19 7 19 0 0 -6 4 -8 10 -5 16 10 90
11 90 2 0 -4 5 -5 11 -2 14 9 117 10 126 2 3 -4 12 -2 19 4 8 7 14 7 19 -1 4
-6 12 -7 24 -1 10 6 23 6 31 1 8 -5 21 -5 31 1 11 6 20 5 24 -1 4 -7 12 -7 25
0 10 6 21 6 24 2 6 -9 59 -7 75 3 6 3 11 2 11 -4 0 -6 11 -6 30 -1 17 5 30 5
30 2 0 -8 79 -6 87 2 3 3 16 1 29 -4 16 -6 24 -6 24 1 0 6 7 6 19 -1 14 -7 22
-7 26 0 4 7 11 7 18 2 7 -5 21 -6 32 -2 11 4 30 4 43 -1 14 -5 22 -5 22 2 0 6
7 6 19 -1 14 -7 22 -7 26 0 4 7 11 7 18 2 7 -5 21 -6 32 -2 11 4 30 4 43 -1
14 -5 22 -5 22 2 0 6 7 6 19 -1 14 -7 22 -7 26 0 4 7 11 7 18 2 7 -5 21 -6 32
-2 11 4 30 4 43 -1 14 -5 22 -5 22 2 0 6 7 6 19 -1 14 -7 22 -7 26 0 4 7 11 7
18 2 7 -5 21 -6 32 -2 11 4 30 4 43 -1 14 -5 22 -5 22 2 0 6 7 6 19 -1 14 -7
22 -7 26 0 4 7 11 7 18 2 7 -5 21 -6 32 -2 11 4 30 4 43 -1 14 -5 22 -5 22 2
0 6 7 6 19 -1 14 -7 22 -7 26 0 4 7 11 7 18 2 7 -5 21 -6 32 -2 11 4 30 4 43
-1 14 -5 22 -5 22 2 0 6 7 6 19 -1 14 -7 22 -7 26 0 4 7 11 7 18 2 7 -5 21 -6
32 -2 11 4 30 4 43 -1 14 -5 22 -5 22 2 0 6 7 6 19 -1 14 -7 22 -7 26 0 4 7
11 7 18 2 7 -5 21 -6 32 -2 11 4 30 4 43 -1 14 -5 22 -5 22 2 0 6 7 6 19 -1
14 -7 22 -7 26 0 4 7 11 7 18 2 7 -5 21 -6 32 -2 11 4 30 4 43 -1 14 -5 22 -5
22 2 0 6 7 6 19 -1 14 -7 22 -7 26 0 4 7 11 7 18 2 7 -5 21 -6 32 -2 11 4 30
4 43 -1 14 -5 22 -5 22 2 0 6 7 6 19 -1 14 -7 22 -7 26 0 4 7 11 7 18 2 7 -5
21 -6 32 -2 11 4 30 4 43 -1 14 -5 22 -5 22 2 0 6 7 6 19 -1 14 -7 22 -7 26 0
4 7 11 7 18 2 7 -5 21 -6 32 -2 11 4 30 4 43 -1 14 -5 22 -5 22 2 0 6 7 6 19
-1 14 -7 22 -7 26 0 4 7 11 7 18 2 7 -5 21 -6 32 -2 11 4 30 4 43 -1 14 -5 22
-5 22 2 0 6 7 6 19 -1 14 -7 22 -7 26 0 4 7 11 7 18 2 7 -5 21 -6 32 -2 11 4
30 4 43 -1 14 -5 22 -5 22 2 0 6 7 6 19 -1 13 -6 22 -7 26 0 3 6 15 6 29 0 13
-5 27 -5 32 0 12 11 86 -25 101 -49 21 -33 36 -151 20 -151 -4 0 -4 -8 2 -17
5 -10 5 -26 0 -40 -5 -14 -5 -23 1 -23 6 0 6 -9 1 -23 -5 -13 -5 -30 -1 -37 5
-8 4 -22 -1 -31 -6 -11 -5 -20 1 -24 6 -4 6 -15 0 -30 -5 -14 -6 -25 -2 -25 9
0 7 -54 -2 -98 -6 -24 -76 -105 -76 -87 0 3 -9 1 -19 -5 -11 -5 -22 -6 -25 -2
-5 9 -64 7 -73 -2 -3 -3 -14 -1 -24 4 -12 7 -20 7 -24 0 -4 -7 -12 -7 -25 0
-11 6 -21 6 -25 1 -3 -6 -17 -6 -35 -1 -18 5 -30 5 -30 0 0 -6 -10 -6 -25 0
-15 6 -26 6 -30 -1 -4 -6 -13 -6 -23 0 -10 6 -23 6 -34 0 -10 -6 -19 -5 -23 1
-4 6 -15 6 -30 0 -16 -6 -25 -6 -25 0 0 6 -9 6 -22 1 -13 -4 -34 -5 -48 -1
-14 4 -35 3 -47 -1 -14 -5 -23 -5 -23 1 0 6 -9 6 -25 0 -15 -6 -26 -6 -30 0
-4 7 -13 6 -25 0 -12 -6 -21 -7 -25 0 -4 6 -15 6 -30 0 -14 -5 -25 -6 -25 -1
0 5 -12 6 -27 2 -16 -4 -40 -4 -55 0 -17 5 -28 4 -28 -2 0 -7 -6 -7 -17 0 -11
6 -24 6 -35 0 -10 -6 -19 -5 -23 1 -4 7 -12 7 -25 0 -10 -6 -21 -7 -23 -3 -6
9 -59 9 -73 0 -6 -3 -16 -2 -24 3 -8 5 -22 5 -32 -1 -12 -6 -18 -6 -18 0 0 6
-11 6 -29 1 -15 -4 -34 -4 -42 0 -7 5 -18 6 -23 3 -12 -8 -106 -7 -113 1 -3 2
-16 1 -29 -4 -15 -6 -24 -6 -24 0 0 6 -9 6 -25 0 -16 -6 -25 -6 -25 0 0 6 -9
6 -25 0 -14 -5 -25 -6 -25 -2 0 4 -11 7 -25 7 -14 0 -25 -3 -25 -7 0 -4 -11
-3 -25 2 -15 6 -26 6 -30 -1 -4 -6 -13 -6 -23 0 -10 6 -23 6 -34 0 -10 -6 -19
-5 -23 1 -4 6 -15 6 -30 0 -16 -6 -25 -6 -25 0 0 6 -9 6 -22 1 -13 -4 -34 -5
-48 -1 -14 4 -35 3 -47 -1 -14 -5 -23 -5 -23 1 0 6 -9 6 -25 0 -15 -6 -26 -6
-30 0 -4 7 -13 6 -25 0 -12 -6 -21 -7 -25 0 -4 6 -15 6 -30 0 -14 -5 -25 -6
-25 -1 0 5 -12 6 -27 2 -16 -4 -40 -4 -55 0 -17 5 -28 4 -28 -2 0 -7 -6 -7
-17 0 -11 6 -24 6 -35 0 -10 -6 -19 -5 -23 1 -4 7 -12 7 -25 0 -10 -6 -21 -7
-23 -3 -6 9 -59 9 -73 0 -6 -3 -16 -2 -24 3 -8 5 -22 5 -32 -1 -10 -5 -18 -6
-18 -2 0 9 -79 8 -87 -1 -3 -3 -16 -1 -29 4 -15 6 -26 6 -30 -1 -4 -8 -9 -8
-17 0 -7 7 -16 7 -29 0 -12 -6 -18 -6 -18 0 0 7 -8 7 -22 2 -13 -5 -32 -5 -43
-1 -11 4 -25 3 -32 -2 -7 -5 -14 -5 -18 2 -4 7 -12 7 -26 0 -12 -7 -19 -7 -19
-1 0 7 -8 7 -22 2 -13 -5 -32 -5 -43 -1 -11 4 -25 3 -32 -2 -7 -5 -14 -5 -18
2 -4 7 -12 7 -26 0 -12 -7 -19 -7 -19 -1 0 7 -8 7 -22 2 -13 -5 -32 -5 -43 -1
-11 4 -25 3 -32 -2 -7 -5 -14 -5 -18 2 -4 7 -12 7 -26 0 -12 -7 -25 -7 -36 -1
-11 6 -24 6 -35 0 -12 -6 -18 -6 -18 0 0 7 -9 7 -25 1 -14 -5 -25 -6 -25 -2 0
4 -18 7 -40 7 -22 0 -40 -3 -40 -7 0 -4 -11 -3 -25 2 -16 6 -25 6 -25 0 0 -6
-9 -6 -25 0 -16 6 -25 6 -25 0 0 -6 -9 -6 -25 0 -15 6 -26 6 -30 -1 -4 -6 -13
-6 -23 0 -10 6 -23 6 -34 0 -11 -6 -18 -6 -18 0 0 5 -12 6 -27 2 -16 -4 -40
-4 -55 0 -16 4 -28 4 -28 -1 0 -6 -10 -6 -25 0 -17 6 -25 6 -25 -1 0 -6 -4 -7
-10 -4 -15 9 -80 12 -80 3 0 -4 -11 -3 -25 2 -16 6 -25 6 -25 0 0 -6 -9 -6
-25 0 -16 6 -25 6 -25 0 0 -6 -9 -6 -25 0 -15 6 -26 6 -30 -1 -4 -6 -13 -6
-23 0 -10 6 -23 6 -34 0 -11 -6 -18 -6 -18 0 0 5 -12 6 -27 2 -16 -4 -40 -4
-55 0 -16 4 -28 4 -28 -1 0 -6 -10 -6 -25 0 -16 6 -25 6 -25 0 0 -6 -9 -6 -25
0 -15 6 -26 6 -30 -1 -4 -5 -12 -6 -18 -2 -7 4 -21 8 -32 9 -44 3 -67 18 -86
56 -11 22 -18 42 -15 45 3 3 1 14 -4 24 -7 12 -7 20 0 24 6 4 7 13 1 24 -6 10
-6 23 -1 31 5 8 5 21 0 29 -5 9 -4 23 1 33 6 10 5 19 -1 23 -6 4 -6 15 0 30 5
14 6 25 2 25 -4 0 -7 11 -7 25 0 14 3 25 7 25 4 0 3 11 -2 24 -5 13 -6 27 -3
30 9 9 10 56 1 56 -4 0 -3 11 2 25 5 14 7 25 3 25 -4 0 6 14 23 31 30 32 87
61 92 48 2 -4 14 -4 26 1z m576 -1282 c0 -4 13 -3 30 2 17 5 32 5 35 0 3 -5
16 -5 30 0 15 6 27 6 30 0 3 -6 15 -6 30 0 15 6 27 6 30 0 3 -6 15 -6 30 0 15
6 27 6 30 0 3 -6 15 -6 30 0 15 6 27 6 30 0 3 -6 15 -6 30 0 15 6 27 6 30 0 3
-6 15 -6 30 0 15 6 27 6 30 0 3 -6 15 -6 30 0 15 6 27 6 30 0 3 -6 15 -6 30 0
15 6 27 6 30 0 3 -6 15 -6 30 0 15 6 27 6 30 0 3 -6 15 -6 30 0 15 6 27 6 30
0 3 -6 15 -6 30 0 15 6 27 6 30 0 3 -6 15 -6 30 0 15 6 27 6 30 0 3 -6 15 -6
30 0 15 6 27 6 30 0 3 -6 15 -6 30 0 15 6 27 6 30 0 3 -6 15 -6 30 0 15 6 27
6 30 0 3 -6 15 -6 30 0 15 6 27 6 30 0 3 -6 15 -6 30 0 15 6 27 6 30 0 3 -6
15 -6 30 0 13 5 26 6 29 2 3 -5 30 -5 61 -2 31 3 58 3 61 -2 3 -4 16 -3 29 2
15 6 27 6 30 0 3 -6 15 -6 30 0 15 6 27 6 30 0 3 -6 15 -6 30 0 15 6 27 6 30
0 3 -6 15 -6 30 0 15 6 27 6 30 0 3 -6 15 -6 30 0 15 6 27 6 30 0 3 -6 15 -6
30 0 15 6 27 6 30 0 3 -6 15 -6 30 0 15 6 27 6 30 0 3 -6 15 -6 30 0 15 6 27
6 30 0 3 -6 15 -6 30 0 15 6 27 6 30 0 3 -6 15 -6 30 0 15 6 27 6 30 0 3 -6
15 -6 30 0 15 6 27 6 30 0 3 -6 15 -6 30 0 15 6 27 6 30 0 3 -6 15 -6 30 0 15
6 27 6 30 0 3 -6 15 -6 30 0 15 6 27 6 30 0 3 -6 15 -6 30 0 15 6 27 6 30 0 3
-6 15 -6 30 0 15 6 27 6 30 0 3 -6 15 -6 29 0 13 5 27 6 30 3 7 -7 76 -10 76
-3 0 3 281 5 625 5 344 0 625 -2 625 -5 0 -3 16 -5 35 -6 64 -1 106 -39 111
-99 1 -16 3 -32 4 -35 5 -12 0 -91 -5 -100 -3 -6 -3 -10 2 -10 4 0 8 -25 8
-55 0 -30 -4 -55 -8 -55 -4 0 -4 -8 2 -17 6 -11 6 -24 0 -35 -6 -10 -5 -19 1
-23 5 -3 6 -15 0 -29 -4 -12 -4 -29 0 -36 5 -8 6 -19 2 -25 -4 -5 -7 -14 -8
-20 -7 -54 -50 -88 -116 -91 -27 -1 -51 -4 -54 -7 -3 -2 -21 -1 -40 3 -19 4
-36 4 -39 0 -3 -4 -19 -4 -37 -1 -18 4 -50 4 -70 0 -21 -3 -38 -3 -38 1 0 4
-18 4 -40 0 -22 -4 -40 -4 -40 0 0 4 -18 4 -40 0 -22 -4 -40 -4 -40 0 0 4 -18
4 -41 0 -22 -4 -56 -4 -75 0 -19 4 -36 4 -39 0 -3 -4 -19 -4 -37 -1 -18 4 -47
4 -64 0 -18 -3 -37 -3 -44 1 -7 4 -27 4 -45 0 -18 -4 -38 -4 -45 0 -7 4 -24 5
-38 1 -14 -4 -45 -4 -69 -1 -23 4 -47 4 -54 0 -6 -4 -26 -4 -45 0 -19 4 -36 4
-39 0 -3 -4 -19 -4 -37 -1 -18 4 -47 4 -64 0 -18 -3 -37 -3 -44 1 -7 4 -27 4
-45 0 -18 -4 -38 -4 -45 0 -7 4 -24 5 -38 1 -14 -4 -45 -4 -69 -1 -23 4 -47 4
-54 0 -6 -4 -26 -4 -45 0 -19 4 -36 4 -39 0 -3 -4 -19 -5 -37 -1 -18 4 -52 4
-75 1 -24 -4 -43 -4 -43 -1 0 7 -138 4 -157 -3 -7 -3 -13 -2 -13 3 0 5 -18 5
-40 1 -22 -4 -40 -4 -40 0 0 4 -18 4 -40 0 -22 -4 -40 -4 -40 0 0 4 -18 4 -40
0 -22 -4 -40 -4 -40 0 0 4 -18 4 -40 0 -22 -4 -40 -4 -40 0 0 4 -18 4 -40 0
-22 -4 -40 -4 -40 0 0 4 -18 4 -40 0 -23 -4 -40 -3 -40 2 0 5 -4 6 -10 3 -8
-5 -67 -7 -162 -4 -10 0 -43 -1 -73 -1 -30 -1 -59 1 -65 5 -5 3 -10 2 -10 -3
0 -5 -20 -6 -45 -2 -25 4 -47 5 -50 2 -6 -7 -105 -6 -111 1 -3 2 -20 1 -38 -3
-19 -4 -39 -4 -46 0 -6 4 -29 4 -51 0 -21 -4 -39 -4 -39 0 0 4 -18 4 -40 0
-22 -4 -43 -3 -46 1 -3 5 -9 7 -14 4 -5 -3 -53 -5 -107 -5 -135 1 -165 0 -174
-6 -4 -2 -10 0 -13 5 -3 4 -24 5 -46 1 -22 -4 -40 -4 -40 0 0 4 -18 4 -40 0
-22 -4 -42 -5 -44 -1 -2 3 -38 4 -80 1 -42 -3 -84 -2 -93 1 -9 3 -33 3 -52 -1
-20 -3 -53 -3 -73 0 -21 4 -38 4 -38 0 0 -4 -19 -4 -42 -1 -24 4 -59 4 -78 1
-19 -3 -50 -3 -68 1 -17 4 -34 3 -37 -1 -3 -4 -22 -4 -42 1 -21 4 -39 8 -40 9
-2 0 -9 0 -17 0 -21 0 -61 46 -73 85 -7 21 -7 35 -2 35 6 0 6 6 0 17 -6 11 -6
24 0 35 7 12 6 18 -1 18 -8 0 -8 6 0 20 8 14 8 20 0 20 -8 0 -8 6 0 20 8 14 8
20 0 20 -8 0 -8 6 0 20 8 14 8 20 0 20 -8 0 -8 6 0 20 8 14 8 20 0 20 -8 0 -8
6 0 20 8 14 8 20 0 20 -8 0 -8 6 0 20 8 14 8 20 0 20 -7 0 -8 6 0 19 7 14 7
22 0 26 -6 4 -7 12 -3 18 4 6 7 23 8 37 3 55 54 95 124 99 19 1 36 3 37 4 6 6
554 1 554 -5z m-1315 -3838 c4 7 12 7 23 1 10 -6 23 -6 34 0 10 6 19 5 23 -1
4 -7 13 -7 26 0 10 6 19 7 19 3 0 -4 11 -8 25 -8 14 0 25 2 25 5 0 7 165 4
185 -3 8 -4 15 -2 15 4 0 6 6 6 18 0 10 -5 24 -6 32 -1 8 5 21 5 31 -1 11 -6
20 -5 24 1 4 7 12 7 23 1 10 -6 23 -6 34 0 10 6 19 5 23 -1 4 -7 13 -7 26 0
10 6 19 7 19 3 0 -4 11 -8 25 -8 14 0 25 2 25 5 0 7 165 4 185 -3 8 -4 15 -2
15 4 0 6 6 6 18 0 10 -5 24 -6 32 -1 8 5 21 5 31 -1 11 -6 20 -5 24 1 4 7 12
7 23 1 10 -6 23 -6 34 0 10 6 19 5 23 -1 4 -7 13 -7 26 0 10 6 19 7 19 3 0 -4
11 -8 25 -8 14 0 25 2 25 5 0 7 165 4 185 -3 8 -4 15 -2 15 4 0 6 6 6 18 0 10
-5 24 -6 32 -1 8 5 21 5 31 -1 11 -6 20 -5 24 1 4 7 12 7 23 1 10 -6 23 -6 34
0 10 6 19 5 23 -1 4 -7 13 -7 26 0 10 6 19 7 19 3 0 -4 11 -8 25 -8 14 0 25 2
25 5 0 7 165 4 185 -3 8 -4 15 -2 15 4 0 6 6 6 18 0 10 -5 24 -6 32 -1 8 5 21
5 31 -1 11 -6 20 -5 24 1 4 7 12 7 23 1 10 -6 23 -6 34 0 10 6 19 5 23 -1 4
-7 13 -7 26 0 10 6 19 7 19 3 0 -4 11 -8 25 -8 14 0 25 2 25 5 0 7 91 2 98 -5
2 -2 13 0 23 5 12 7 20 7 24 0 4 -7 13 -7 26 0 10 6 19 7 19 3 0 -4 11 -8 25
-8 14 0 25 2 25 5 0 7 78 3 97 -4 7 -3 13 -1 13 4 0 6 9 6 23 2 22 -9 75 -7
84 2 3 3 16 1 29 -4 16 -6 24 -6 24 1 0 6 7 6 19 -1 14 -7 22 -7 26 0 4 7 11
7 18 2 7 -5 21 -6 32 -2 11 4 30 4 43 -1 14 -5 22 -5 22 2 0 6 7 6 19 -1 14
-7 22 -7 26 0 4 7 11 7 18 2 7 -5 21 -6 32 -2 11 4 30 4 43 -1 14 -5 22 -5 22
2 0 6 7 6 19 -1 14 -7 22 -7 26 0 4 7 11 7 18 2 7 -5 21 -6 32 -2 11 4 30 4
43 -1 14 -5 22 -5 22 2 0 6 7 6 19 -1 14 -7 22 -7 26 0 4 7 11 7 18 2 7 -5 21
-6 32 -2 11 4 30 4 43 -1 14 -5 22 -5 22 2 0 6 7 6 19 -1 14 -7 22 -7 26 0 4
7 11 7 18 2 7 -5 21 -6 32 -2 11 4 30 4 43 -1 14 -5 22 -5 22 2 0 6 7 6 19 -1
14 -7 22 -7 26 0 4 7 11 7 18 2 7 -5 21 -6 32 -2 11 4 30 4 43 -1 14 -5 22 -5
22 2 0 6 7 6 19 -1 14 -7 22 -7 26 0 4 7 11 7 18 2 7 -5 21 -6 32 -2 11 4 30
4 43 -1 14 -5 22 -5 22 2 0 6 7 6 19 -1 14 -7 22 -7 26 0 4 7 11 7 18 2 7 -5
21 -6 32 -2 11 4 30 4 43 -1 14 -5 22 -5 22 2 0 6 7 6 19 -1 14 -7 22 -7 26 0
4 7 11 7 18 2 7 -5 21 -6 32 -2 11 4 30 4 43 -1 14 -5 22 -5 22 2 0 6 7 6 19
-1 14 -7 22 -7 26 0 4 7 11 7 18 2 7 -5 21 -6 32 -2 11 4 30 4 43 -1 14 -5 22
-5 22 2 0 6 7 6 19 -1 14 -7 22 -7 26 0 4 7 11 7 18 2 7 -5 21 -6 32 -2 11 4
30 4 43 -1 14 -5 22 -5 22 2 0 6 7 6 19 -1 14 -7 22 -7 26 0 4 7 11 7 18 2 7
-5 21 -6 32 -2 11 4 30 4 43 -1 14 -5 22 -5 22 2 0 6 7 6 19 -1 14 -7 22 -7
26 0 4 7 11 7 18 2 7 -5 21 -6 32 -2 11 4 30 4 43 -1 14 -5 22 -5 22 2 0 6 7
6 19 -1 14 -7 22 -7 26 0 4 7 11 7 18 2 7 -5 21 -6 32 -2 11 4 30 4 43 -1 14
-5 22 -5 22 2 0 6 7 6 19 -1 14 -7 22 -7 26 0 4 7 11 7 18 2 7 -5 21 -6 32 -2
11 4 30 4 43 -1 14 -5 22 -5 22 2 0 6 7 6 19 -1 12 -6 22 -6 26 -1 5 9 42 7
53 -3 2 -3 13 -1 23 5 13 6 19 6 19 0 0 -7 9 -7 25 -1 16 6 25 6 25 0 0 -6 9
-6 23 -1 13 5 30 5 39 0 11 -6 19 -5 23 1 4 7 12 7 25 0 13 -7 21 -7 25 0 4 7
12 7 23 1 10 -6 23 -6 34 0 12 7 18 6 18 -1 0 -6 5 -8 11 -4 15 9 174 8 188 0
6 -4 11 -3 11 3 0 7 8 7 25 -1 20 -9 24 -17 20 -37 -7 -38 -15 -168 -20 -324
-2 -75 -7 -142 -10 -147 -3 -6 -3 -10 2 -10 9 0 9 -52 0 -66 -3 -6 -2 -16 3
-23 4 -8 4 -27 0 -42 -5 -17 -5 -29 0 -29 6 0 6 -10 0 -24 -5 -13 -6 -27 -3
-30 10 -9 10 -57 1 -62 -5 -3 -5 -11 -1 -17 4 -7 8 -55 9 -107 2 -87 11 -250
18 -327 2 -28 -1 -32 -26 -35 -16 -3 -31 -1 -34 3 -2 4 -17 4 -33 -1 -15 -4
-34 -4 -42 0 -7 5 -20 5 -28 0 -8 -4 -25 -4 -38 1 -13 5 -25 4 -28 -2 -4 -5
-13 -6 -22 0 -9 5 -29 5 -45 1 -15 -5 -28 -5 -28 0 0 5 -13 5 -30 0 -16 -5
-30 -5 -30 0 0 4 -16 4 -35 0 -19 -4 -37 -4 -40 1 -3 4 -16 4 -29 -1 -12 -4
-29 -5 -36 0 -7 4 -20 6 -27 3 -24 -9 -56 -10 -80 -1 -12 4 -25 3 -28 -2 -3
-6 -15 -6 -29 0 -13 5 -26 6 -30 3 -7 -7 -1335 -7 -1342 0 -4 3 -17 2 -30 -3
-14 -6 -26 -6 -29 0 -3 6 -15 6 -30 0 -15 -6 -27 -6 -30 0 -3 6 -15 6 -30 0
-15 -6 -27 -6 -30 0 -3 6 -15 6 -30 0 -15 -6 -27 -6 -30 0 -3 6 -15 6 -30 0
-15 -6 -27 -6 -30 0 -3 6 -15 6 -30 0 -15 -6 -27 -6 -30 0 -3 6 -15 6 -30 0
-15 -6 -27 -6 -30 0 -3 6 -15 6 -30 0 -15 -6 -27 -6 -30 0 -3 6 -15 6 -30 0
-15 -6 -27 -6 -30 0 -3 6 -15 6 -30 0 -15 -6 -27 -6 -30 0 -3 6 -15 6 -30 0
-15 -6 -27 -6 -30 0 -3 6 -15 6 -30 0 -15 -6 -27 -6 -30 0 -3 6 -15 6 -30 0
-15 -6 -27 -6 -30 0 -3 6 -15 6 -30 0 -15 -6 -27 -6 -30 0 -3 6 -15 6 -30 0
-15 -6 -27 -6 -30 0 -3 6 -15 6 -30 0 -15 -6 -27 -6 -30 0 -3 6 -15 6 -29 0
-13 -5 -27 -6 -30 -2 -8 8 -103 5 -116 -3 -6 -3 -10 -2 -10 4 0 6 -11 6 -30 1
-17 -5 -30 -5 -30 0 0 4 -16 4 -35 0 -19 -4 -37 -4 -40 1 -3 4 -16 4 -29 -1
-12 -4 -29 -5 -36 0 -7 5 -24 4 -37 -1 -13 -5 -23 -5 -23 1 0 5 -12 5 -30 0
-17 -5 -30 -5 -30 0 0 5 -13 5 -30 0 -17 -5 -30 -5 -30 0 0 4 -16 4 -35 0 -19
-4 -37 -4 -40 1 -3 4 -16 4 -29 -1 -12 -4 -29 -5 -36 0 -7 5 -24 4 -37 -1 -13
-5 -23 -5 -23 1 0 5 -12 5 -30 0 -17 -5 -30 -5 -30 0 0 5 -13 5 -30 0 -16 -5
-30 -5 -30 0 0 4 -16 4 -35 0 -19 -4 -37 -4 -40 1 -3 4 -16 4 -29 -1 -12 -4
-29 -5 -36 0 -7 5 -24 4 -37 -1 -13 -5 -23 -5 -23 1 0 5 -12 5 -30 0 -17 -5
-30 -5 -30 0 0 5 -13 5 -30 0 -16 -5 -30 -5 -30 0 0 4 -16 4 -35 0 -19 -4 -37
-4 -40 1 -3 4 -16 4 -29 -1 -12 -4 -29 -5 -36 0 -7 5 -23 5 -34 1 -23 -8 -56
-7 -80 2 -8 3 -18 2 -21 -3 -3 -6 -15 -6 -30 0 -15 6 -27 6 -30 0 -3 -6 -15
-6 -30 0 -15 6 -27 6 -30 0 -3 -6 -15 -6 -30 0 -15 6 -27 6 -30 0 -3 -6 -15
-6 -30 0 -15 6 -27 6 -30 0 -3 -6 -15 -6 -30 0 -15 6 -27 6 -30 0 -3 -6 -15
-6 -30 0 -15 6 -27 6 -30 0 -3 -6 -15 -6 -30 0 -15 6 -27 6 -30 0 -3 -6 -15
-6 -30 0 -15 6 -27 6 -30 0 -3 -6 -15 -6 -30 0 -15 6 -27 6 -30 0 -3 -6 -15
-6 -30 0 -15 6 -27 6 -30 0 -3 -6 -15 -6 -30 0 -15 6 -27 6 -30 0 -3 -6 -15
-6 -30 0 -15 6 -27 6 -30 0 -3 -6 -15 -6 -30 0 -15 6 -27 6 -30 0 -3 -6 -15
-6 -30 0 -15 6 -27 6 -30 0 -3 -6 -15 -6 -30 0 -15 6 -27 6 -30 0 -3 -6 -15
-6 -30 0 -15 6 -27 6 -30 0 -3 -6 -15 -6 -30 0 -15 6 -27 6 -30 0 -3 -6 -15
-6 -30 0 -15 6 -27 6 -30 0 -3 -6 -15 -6 -30 0 -15 6 -27 6 -30 0 -3 -6 -15
-6 -30 0 -15 6 -27 6 -30 -1 -4 -5 -11 -7 -16 -3 -6 3 -29 8 -52 10 -49 5
-102 12 -102 14 0 1 -8 3 -17 5 -32 6 -188 85 -188 95 0 6 -6 10 -14 10 -8 0
-44 32 -80 71 -64 69 -143 204 -151 259 -2 14 -7 36 -10 50 -4 14 -8 45 -10
70 -2 25 -4 47 -5 50 -1 3 -2 9 0 15 2 10 10 98 13 133 0 12 4 22 7 22 3 0 6
10 7 21 2 28 65 156 94 194 69 85 200 195 235 195 7 0 14 3 16 8 4 9 96 42
140 49 18 4 54 7 80 7 27 1 48 5 48 9 0 4 9 3 19 -3 13 -7 22 -7 26 0z"/>
</g>
</svg>
